<?xml version="1.0" encoding="UTF-8"?>
<svg width="1200pt" height="1200pt" version="1.1" viewBox="0 0 1200 1200" xmlns="http://www.w3.org/2000/svg">
 <g>
  <path d="m485.54 949.27c-9.9453 0-19.832 1.4844-29.336 4.4023l-35.734-71.434 38.102-76.199s0-0.30078 0.16797-0.46484v-0.003906c0.24219-0.55469 0.45312-1.1211 0.63281-1.6992 0.16797-0.5 0.33203-0.96484 0.46484-1.4648 0.13281-0.5 0.16797-1 0.23438-1.5352 0.089844-0.59766 0.14453-1.1992 0.16797-1.8008v-0.5-0.96484c-0.023437-0.60547-0.078125-1.2031-0.16797-1.8008 0-0.53516-0.23438-1.0352-0.36719-1.5664-0.13281-0.53516-0.30078-1.0352-0.46484-1.5352-0.19922-0.51172-0.42188-1.0117-0.66797-1.5-0.23438-0.46484-0.46484-0.93359-0.73438-1.3672-0.26562-0.43359-0.60156-0.89844-0.93359-1.3008-0.33203-0.39844-0.66797-0.86719-1.0352-1.2656-0.36719-0.39844-0.76562-0.76562-1.168-1.1016-0.39844-0.33203-0.80078-0.69922-1.2344-1l0.003906 0.003907c-0.49219-0.35156-1.0039-0.67188-1.5312-0.96875-0.30078 0-0.53516-0.36719-0.83203-0.53516l-0.46484-0.16797-0.003907 0.003906c-0.55469-0.24219-1.1211-0.45312-1.6992-0.63281-0.5 0-0.96484-0.33203-1.4648-0.46484-0.5-0.13281-1.0352-0.16797-1.5664-0.26562l-0.003906-0.003907c-0.58203-0.085937-1.1719-0.14062-1.7656-0.16797h-69.699c-5.9531 0-11.457 3.1797-14.434 8.3359s-2.9766 11.508 0 16.664c2.9766 5.1602 8.4805 8.3359 14.434 8.3359h42.234l-25.168 50.332h-154.2l29.734-79.602h15.699v0.003906c5.9531 0 11.457-3.1797 14.434-8.3359 2.9766-5.1562 2.9766-11.508 0-16.664-2.9766-5.1602-8.4805-8.3359-14.434-8.3359h-140c-5.957 0-11.457 3.1758-14.434 8.3359-2.9766 5.1562-2.9766 11.508 0 16.664 2.9766 5.1562 8.4766 8.3359 14.434 8.3359h88.73l-61.664 165.07c-33.309-6.4688-67.629 4.3008-91.273 28.637-23.641 24.336-33.41 58.957-25.984 92.062 7.4297 33.105 31.055 60.23 62.828 72.133 31.773 11.902 67.406 6.9766 94.758-13.102 27.352-20.078 42.73-52.598 40.895-86.477-1.832-33.879-20.633-64.547-49.988-81.555l16.066-43.066 86.934 138.73v-0.003906c0.41016 0.65625 0.86719 1.2773 1.3633 1.8672l0.36719 0.36719c0.55859 0.62109 1.1602 1.2031 1.8008 1.7344l0.5 0.39844c0.77344 0.59375 1.6016 1.1172 2.4688 1.5664h0.19922l0.69922 0.30078 0.83203 0.33203 1.0664 0.53516 0.69922 0.19922 1.5 0.30078h0.46875c0.67578 0.042969 1.3555 0.042969 2.0352 0h68.633c4.2109 25.312 17.961 48.051 38.426 63.539 20.461 15.484 46.082 22.543 71.586 19.719 25.508-2.8242 48.961-15.312 65.543-34.902 16.578-19.586 25.023-44.781 23.594-70.402-1.4258-25.625-12.617-49.727-31.27-67.348-18.656-17.625-43.352-27.434-69.012-27.406zm-267.7 100.33-0.003907 0.003906c0.015625 18.207-7.3711 35.645-20.465 48.301s-30.766 19.445-48.965 18.812c-18.203-0.63281-35.363-8.6367-47.543-22.172-12.184-13.535-18.34-31.441-17.059-49.605s9.8867-35.031 23.848-46.723c13.965-11.691 32.078-17.207 50.184-15.281l-22.699 60.801c-2.082 5.5781-1.0312 11.844 2.7578 16.441 3.7891 4.5938 9.7422 6.8164 15.617 5.832 5.8711-0.98437 10.773-5.0273 12.859-10.609l22.668-60.734v0.003907c18.023 12.496 28.785 33.031 28.797 54.965zm208.57-81-0.003906 0.003906c-21.125 15.457-35.383 38.551-39.73 64.363h-41.535l56.668-113.33zm32.168 64.332-37.871 0.003906c3.3867-13.148 10.688-24.957 20.934-33.867zm-83.699-134.04-58.332 116.67-73.207-116.63h131.43zm110.66 217.77c-14.855-0.027344-29.285-4.9805-41.016-14.094-11.734-9.1094-20.113-21.855-23.82-36.242h64.836c5.7773 0 11.145-2.9922 14.18-7.9102s3.3086-11.055 0.71875-16.223l-29.035-58.035v0.003907c18.578-4 37.977 0.078125 53.371 11.215 15.395 11.137 25.336 28.285 27.352 47.176 2.0156 18.895-4.0859 37.754-16.785 51.887-12.699 14.133-30.801 22.211-49.801 22.223z"/>
  <path d="m976.67 173.33c-16.586 0-32.492-6.5859-44.219-18.312-11.727-11.73-18.316-27.633-18.316-44.219 0-16.586 6.5898-32.492 18.316-44.219 11.727-11.727 27.633-18.316 44.219-18.316 16.582 0 32.488 6.5898 44.215 18.316 11.73 11.727 18.316 27.633 18.316 44.219-0.015625 16.578-6.6094 32.473-18.336 44.199-11.723 11.723-27.617 18.316-44.195 18.332zm0-91.734v0.003906c-7.7461 0-15.172 3.0742-20.648 8.5508-5.4766 5.4766-8.5547 12.902-8.5547 20.648 0 7.7422 3.0781 15.172 8.5547 20.648 5.4766 5.4727 12.902 8.5508 20.648 8.5508 7.7422 0 15.172-3.0781 20.645-8.5508 5.4766-5.4766 8.5547-12.906 8.5547-20.648-0.042969-7.7188-3.1406-15.105-8.6094-20.551s-12.871-8.5078-20.59-8.5156z"/>
  <path d="m1112.3 369.63c-4.418 0-8.6602-1.7539-11.785-4.8828-3.125-3.125-4.8789-7.3633-4.8789-11.785 0-37.398-11.5-67.199-34.168-88.535-34.766-32.895-88.102-39.262-114.1-40.328v128.87-0.003906c0 5.957-3.1758 11.457-8.332 14.438-5.1562 2.9766-11.512 2.9766-16.668 0-5.1562-2.9805-8.332-8.4805-8.332-14.438v-145.57c-0.007812-4.25 1.6094-8.3438 4.5234-11.445 2.9102-3.0977 6.8984-4.9648 11.145-5.2188 3.9336-0.23438 96.668-5.1992 154.63 49.367 29.633 27.898 44.668 65.832 44.668 112.83h-0.003906c0.011718 4.4297-1.7461 8.6836-4.8789 11.816-3.1328 3.1367-7.3867 4.8906-11.82 4.8828z"/>
  <path d="m895.54 536.2c-4.4219 0-8.6602-1.7539-11.785-4.8789-3.1289-3.1289-4.8828-7.3672-4.8828-11.785 0-79.332 40-103.07 92.602-125.83 51.602-22.398 50.234-62.465 50.234-62.898l-0.003906-0.003907c-0.28906-5.957 2.6172-11.613 7.625-14.844 5.0117-3.2305 11.367-3.5391 16.668-0.81641 5.3047 2.7266 8.75 8.0703 9.043 14.027 0 2.5664 2.3008 63.602-70.234 95.102-46.332 20-72.566 34.465-72.566 95.266 0 4.4258-1.7617 8.668-4.8945 11.797-3.1328 3.125-7.3789 4.875-11.805 4.8672z"/>
  <path d="m790.43 343.33c-2.4453 0-4.9453-0.066406-7.5-0.19922-5.9531-0.29297-11.301-3.7383-14.027-9.0391-2.7227-5.3047-2.4102-11.656 0.81641-16.668 3.2305-5.0117 8.8906-7.918 14.844-7.625 65.668 3.332 80-47.234 81.301-53.035 1.3516-5.7969 5.6953-10.438 11.395-12.164 5.6953-1.7305 11.883-0.28906 16.23 3.7812 4.3477 4.0703 6.1914 10.152 4.8398 15.949-6.3984 28-37.098 79-107.9 79z"/>
  <path d="m1111.8 535.07c-75.566 0-111.8-72.102-113.33-75.168-2.6328-5.3555-2.2031-11.715 1.1211-16.672 3.3242-4.9609 9.043-7.7656 15-7.3672 5.957 0.40234 11.246 3.9492 13.879 9.3086 0.39844 0.80078 28.934 56.668 83.332 56.668v-0.003907c5.6328 0.4375 10.66 3.6992 13.355 8.6602 2.6953 4.9609 2.6953 10.953 0 15.914-2.6953 4.9648-7.7227 8.2227-13.355 8.6602z"/>
  <path d="m791.5 921.23h-1.6992c-12.887 0.007813-25.242 5.1328-34.355 14.242-9.1133 9.1133-14.238 21.469-14.246 34.355v1.7031c0.042969 12.863 5.1836 25.184 14.293 34.27 9.1094 9.082 21.445 14.188 34.309 14.195h1.6992c12.848-0.035156 25.156-5.1523 34.242-14.23 9.0898-9.082 14.215-21.391 14.258-34.234v-1.7031c-0.007812-12.867-5.1172-25.211-14.207-34.32-9.0938-9.1094-21.422-14.242-34.293-14.277zm18.5 50.301c0 4.9297-1.9609 9.6641-5.4492 13.148-3.4883 3.4883-8.2188 5.4492-13.152 5.4492h-1.6992c-4.9336 0-9.6641-1.9609-13.152-5.4492-3.4883-3.4844-5.4453-8.2188-5.4453-13.148v-1.7031c0-4.9336 1.957-9.6641 5.4453-13.152 3.4883-3.4883 8.2188-5.4453 13.152-5.4453h1.6992c4.9336 0 9.6641 1.957 13.152 5.4453 3.4883 3.4883 5.4492 8.2188 5.4492 13.152z"/>
  <path d="m1008.6 921.23h-1.6992c-12.887 0.007813-25.242 5.1328-34.355 14.242-9.1133 9.1133-14.234 21.469-14.246 34.355v1.7031c0.046875 12.863 5.1836 25.184 14.293 34.27 9.1094 9.082 21.445 14.188 34.309 14.195h1.6992c12.887-0.007812 25.242-5.1328 34.355-14.246 9.1133-9.1094 14.234-21.469 14.246-34.355v-1.6992c-0.046875-12.863-5.1836-25.184-14.293-34.27-9.1094-9.082-21.445-14.188-34.309-14.195zm18.602 50.301c0 4.9297-1.9609 9.6641-5.4492 13.148-3.4883 3.4883-8.2188 5.4492-13.152 5.4492h-1.6992c-4.9336 0-9.6641-1.9609-13.152-5.4492-3.4883-3.4844-5.4492-8.2188-5.4492-13.148v-1.7031c0-4.9336 1.9609-9.6641 5.4492-13.152 3.4883-3.4883 8.2188-5.4453 13.152-5.4453h1.6992c4.9336 0 9.6641 1.957 13.152 5.4453 3.4883 3.4883 5.4492 8.2188 5.4492 13.152z"/>
  <path d="m867.37 716.4h63.633c5.3594 0 10.312-2.8555 12.992-7.5 2.6758-4.6406 2.6758-10.355 0-15-2.6797-4.6406-7.6328-7.5-12.992-7.5h-63.633c-5.3594 0-10.312 2.8594-12.992 7.5-2.6797 4.6445-2.6797 10.359 0 15 2.6797 4.6445 7.6328 7.5 12.992 7.5z"/>
  <path d="m1148.8 810.54c-0.015625-11.543-4.6094-22.605-12.77-30.766-8.1602-8.1602-19.223-12.75-30.762-12.77h-15.934c-8.8164 0-17.418 2.6836-24.668 7.6992l-30.332-107.73c-2.8438-10.297-8.9805-19.379-17.473-25.855-8.4961-6.4766-18.879-9.9922-29.562-10.008h-174.46c-10.59 0.019532-20.883 3.4766-29.34 9.8477-8.457 6.3711-14.617 15.312-17.562 25.484l-31.566 108.27c-7.2461-5.0156-15.852-7.6992-24.664-7.6992h-15.934c-14.738 0.34766-28.297 8.1328-36.031 20.68-7.7344 12.551-8.5898 28.16-2.2812 41.48 6.3125 13.32 18.938 22.543 33.547 24.508-9.8867 10.02-15.43 23.523-15.434 37.598v168.77c0 4.9062 1.9492 9.6094 5.418 13.078 3.4688 3.4727 8.1758 5.4219 13.082 5.4219h50.602v50.668l-0.003906-0.003906c0 5.3047 2.1094 10.391 5.8594 14.145 3.75 3.75 8.8359 5.8555 14.141 5.8555h60.633c5.3047 0 10.395-2.1055 14.145-5.8555 3.75-3.7539 5.8555-8.8398 5.8555-14.145v-50.531h110v50.668-0.003907c0 5.3047 2.1094 10.395 5.8594 14.145s8.8359 5.8555 14.141 5.8555h60.734c5.3047 0 10.391-2.1055 14.141-5.8555 3.7539-3.75 5.8594-8.8398 5.8594-14.145v-50.664h52.266c4.9062 0 9.6133-1.9492 13.082-5.418 3.4688-3.4727 5.418-8.1758 5.418-13.082v-168.77c-0.003906-14.039-5.5234-27.52-15.367-37.531 10.77-1.0508 20.766-6.0703 28.039-14.078 7.2773-8.0078 11.312-18.438 11.328-29.254zm-335.5 308.77h-40.633v-40.602h40.633zm210.67 0h-40.668v-40.602h40.633v40.602zm-229.2-444.57c1.125-3.9258 3.4961-7.375 6.7578-9.8359 3.2578-2.457 7.2266-3.7891 11.309-3.7969h174.46c4.1289 0.007813 8.1406 1.375 11.418 3.8828 3.2734 2.5117 5.6367 6.0312 6.7148 10.016l47.402 168.33-44.535 16.668h-222.27l-40.633-16.035zm-114.54 135.83c0.019531-7.4648 6.0664-13.516 13.535-13.531h15.934c7.4805 0 13.551 6.0664 13.551 13.547 0 7.4844-6.0703 13.551-13.551 13.551h-15.934c-3.5977-0.007812-7.0469-1.4453-9.5859-3.9961-2.5352-2.5508-3.957-6.0039-3.9492-9.6016zm414.5 238.1h-391.16v-157.27c0.039063-5.7188 2.1445-11.23 5.9297-15.52 3.7891-4.2891 8.9961-7.0625 14.668-7.8125l52.898 20.867h0.003906c2.125 0.83203 4.3828 1.2617 6.6641 1.2656h226.67c2.2773 0.019531 4.5391-0.38672 6.668-1.1992l55.867-21.102h-0.003906c5.9688 0.44531 11.547 3.1289 15.617 7.5117 4.0742 4.3828 6.3438 10.141 6.3516 16.125v157.13zm10.535-224.6h-15.934c-7.4844 0-13.551-6.0664-13.551-13.551 0-7.4805 6.0664-13.551 13.551-13.551h15.934c7.4922 0 13.566 6.0742 13.566 13.57 0 7.4922-6.0742 13.566-13.566 13.566z"/>
  <path d="m225.17 416.1c-13.73 0-26.898 5.4531-36.605 15.16s-15.164 22.875-15.164 36.605c0 13.73 5.457 26.895 15.164 36.605 9.707 9.707 22.875 15.16 36.605 15.16 13.727 0 26.895-5.4531 36.602-15.16 9.7109-9.7109 15.164-22.875 15.164-36.605-0.007813-13.727-5.4648-26.891-15.172-36.594-9.707-9.707-22.867-15.164-36.594-15.172zm0 70.168v-0.003906c-4.8906 0-9.5781-1.9414-13.035-5.3984-3.457-3.457-5.3984-8.1445-5.3984-13.035 0-4.8867 1.9414-9.5742 5.3984-13.031 3.457-3.457 8.1445-5.4023 13.035-5.4023 4.8867 0 9.5742 1.9453 13.031 5.4023s5.4023 8.1445 5.4023 13.031c0 4.8906-1.9453 9.5781-5.4023 13.035-3.457 3.457-8.1445 5.3984-13.031 5.3984z"/>
  <path d="m493.33 416.1c-13.727 0-26.895 5.4531-36.602 15.16-9.7109 9.707-15.164 22.875-15.164 36.605 0 13.73 5.4531 26.895 15.164 36.605 9.707 9.707 22.875 15.16 36.602 15.16 13.73 0 26.898-5.4531 36.605-15.16 9.707-9.7109 15.164-22.875 15.164-36.605-0.011718-13.727-5.4688-26.891-15.172-36.594-9.707-9.707-22.871-15.164-36.598-15.172zm0 70.168v-0.003906c-4.8867 0-9.5742-1.9414-13.031-5.3984-3.457-3.457-5.4023-8.1445-5.4023-13.035 0-4.8867 1.9453-9.5742 5.4023-13.031s8.1445-5.4023 13.031-5.4023c4.8906 0 9.5781 1.9453 13.035 5.4023 3.457 3.457 5.3984 8.1445 5.3984 13.031 0 4.8906-1.9414 9.5781-5.3984 13.035-3.457 3.457-8.1445 5.3984-13.035 5.3984z"/>
  <path d="m630.8 259.07c-2.7109 0.003906-5.4141 0.28125-8.0664 0.83203v-161.46c-0.019531-12.965-5.1758-25.391-14.344-34.559-9.1641-9.168-21.594-14.324-34.559-14.34h-427.6c-12.965 0.015625-25.391 5.1719-34.559 14.34s-14.324 21.594-14.344 34.559v161.57c-11.684-2.4219-23.84 0.53516-33.105 8.0547-9.2656 7.5234-14.66 18.812-14.691 30.746v38.965c0 11.953 5.3828 23.27 14.652 30.812s21.441 10.516 33.145 8.0898v159.33c0.019531 12.965 5.1758 25.391 14.344 34.559 9.168 9.168 21.594 14.324 34.559 14.34h26.266v55.27c0 4.418 1.7578 8.6602 4.8828 11.785s7.3633 4.8789 11.785 4.8789h71.965c4.4219 0 8.6602-1.7539 11.785-4.8789s4.8828-7.3672 4.8828-11.785v-55.234h162.9v55.266c0 4.4219 1.7578 8.6602 4.8828 11.785s7.3633 4.8828 11.785 4.8828h71.965c4.4219 0 8.6602-1.7578 11.785-4.8828s4.8828-7.3633 4.8828-11.785v-55.266h27.801c12.961-0.019532 25.391-5.1758 34.559-14.344 9.1641-9.1641 14.324-21.594 14.34-34.555v-159.37c11.703 2.4258 23.879-0.54688 33.148-8.0898 9.2695-7.543 14.652-18.859 14.652-30.812v-38.965c-0.007812-10.531-4.1914-20.625-11.637-28.074-7.4414-7.4492-17.535-11.641-28.062-11.66zm-484.57-176.2h427.6c4.1289 0.007812 8.082 1.6523 11 4.5703 2.918 2.9141 4.5586 6.8711 4.5664 10.996v252.33h-458.73v-252.33c0.007812-4.125 1.6484-8.082 4.5664-10.996 2.918-2.918 6.875-4.5625 11-4.5703zm-56.969 264.63c-5.3164-0.14062-9.5938-4.418-9.7305-9.7344v-38.965c-0.058594-4.3086 2.7305-8.1406 6.8477-9.4062 4.1211-1.2617 8.582 0.33984 10.949 3.9375v49.703c-1.7773 2.7383-4.8008 4.4141-8.0664 4.4648zm155.2 276.04h-38.633v-38.602h38.633zm268.23 0h-38.633v-38.602h38.633zm61.133-71.934h-427.6c-4.125-0.011718-8.082-1.6523-11-4.5703s-4.5586-6.8711-4.5664-10.996v-151.93h458.73v151.9c0 4.1328-1.6367 8.0938-4.5547 11.02s-6.8789 4.5703-11.012 4.582zm66.668-213.83v-0.003906c0.011719 4.2891-2.793 8.0781-6.8984 9.3164-4.1094 1.2383-8.543-0.36719-10.902-3.9492v-49.801c2.3594-3.582 6.793-5.1875 10.902-3.9492 4.1055 1.2383 6.9102 5.0273 6.8984 9.3164z"/>
 </g>
</svg>
